<svg width="256" height="256" viewBox="0 0 256 256" fill="none" xmlns="http://www.w3.org/2000/svg">
<path fill-rule="evenodd" clip-rule="evenodd" d="M128 240C189.856 240 240 189.856 240 128C240 89.1297 220.199 54.8842 190.133 34.8005L128 128L64 160V96L188.517 33.7413C171.066 22.5135 150.294 16 128 16C66.1441 16 16 66.1441 16 128C16 166.87 35.8013 201.116 65.867 221.199L128 128L192 96V160L67.4826 222.259C84.9343 233.486 105.706 240 128 240ZM128 256C198.692 256 256 198.692 256 128C256 57.3076 198.692 0 128 0C57.3076 0 0 57.3076 0 128C0 198.692 57.3076 256 128 256Z" fill="#333333"/>
</svg>
