<?xml version="1.0" encoding="UTF-8" standalone="no"?><!DOCTYPE svg PUBLIC "-//W3C//DTD SVG 1.1//EN" "http://www.w3.org/Graphics/SVG/1.1/DTD/svg11.dtd"><svg width="100%" height="100%" viewBox="0 0 123 123" version="1.1" xmlns="http://www.w3.org/2000/svg" xmlns:xlink="http://www.w3.org/1999/xlink" xml:space="preserve" style="fill-rule:evenodd;clip-rule:evenodd;stroke-linejoin:round;stroke-miterlimit:1.41421;"><path d="M35.05,101.025c-2.365,-1.58 -4.589,-3.371 -6.637,-5.347c-4.055,-3.912 -7.41,-8.541 -9.857,-13.616c-2.123,-4.403 -3.556,-9.132 -4.234,-13.973c-0.714,-5.092 -0.602,-10.302 0.335,-15.358c0.816,-4.405 2.263,-8.689 4.282,-12.689c2.452,-4.857 5.742,-9.283 9.68,-13.037c3.874,-3.694 8.369,-6.732 13.246,-8.938c3.921,-1.774 8.081,-3.008 12.335,-3.658c1.488,-0.228 2.987,-0.385 4.491,-0.471c0.813,-0.046 1.627,-0.069 2.442,-0.077c0.205,-0.001 0.409,-0.001 0.614,0c0.815,0.008 1.629,0.031 2.442,0.077c1.504,0.086 3.003,0.243 4.491,0.471c4.254,0.65 8.414,1.884 12.335,3.658c0.977,0.442 1.938,0.917 2.882,1.424l8.263,-4.131l-4.33,6.495c2.286,1.527 4.44,3.252 6.431,5.15c3.868,3.688 7.112,8.024 9.55,12.78c2.087,4.073 3.578,8.446 4.412,12.946c0.937,5.056 1.049,10.266 0.335,15.358c-0.678,4.841 -2.111,9.57 -4.234,13.973c-2.447,5.075 -5.802,9.704 -9.857,13.616c-4.269,4.119 -9.303,7.433 -14.78,9.712c-2.977,1.238 -6.08,2.171 -9.246,2.778c-2.965,0.569 -5.983,0.852 -9.001,0.852c-3.018,0 -6.036,-0.283 -9.001,-0.852c-3.166,-0.607 -6.269,-1.54 -9.246,-2.778c-1.435,-0.597 -2.841,-1.266 -4.21,-2.002l-8.263,4.132l4.33,-6.495Zm45.507,-79.863c-0.096,-0.046 -0.191,-0.091 -0.287,-0.136c-3.646,-1.703 -7.522,-2.905 -11.491,-3.564c-1.389,-0.23 -2.789,-0.394 -4.193,-0.493c-0.76,-0.053 -1.521,-0.084 -2.282,-0.101c-0.384,-0.006 -0.768,-0.008 -1.152,-0.007c-0.764,0.007 -1.528,0.029 -2.29,0.072c-1.409,0.081 -2.814,0.228 -4.209,0.441c-3.983,0.609 -7.88,1.765 -11.551,3.426c-4.489,2.031 -8.632,4.813 -12.219,8.192c-3.579,3.372 -6.599,7.334 -8.895,11.683c-1.998,3.785 -3.444,7.858 -4.277,12.056c-0.955,4.818 -1.107,9.796 -0.456,14.664c0.607,4.54 1.922,8.981 3.886,13.12c2.265,4.771 5.385,9.128 9.163,12.818c1.972,1.925 4.12,3.666 6.41,5.196l24.726,-37.089l30.72,-15.36l0,30.72l-49.837,24.918c0.585,0.279 1.176,0.545 1.772,0.797c2.779,1.176 5.677,2.067 8.636,2.653c2.772,0.55 5.595,0.833 8.421,0.851c2.832,0.018 5.665,-0.23 8.45,-0.746c2.971,-0.55 5.885,-1.406 8.681,-2.549c5.147,-2.105 9.884,-5.183 13.908,-9.02c3.821,-3.643 6.991,-7.96 9.313,-12.702c2.012,-4.109 3.38,-8.526 4.043,-13.052c0.713,-4.861 0.621,-9.842 -0.274,-14.672c-0.781,-4.214 -2.178,-8.31 -4.132,-12.124c-2.285,-4.458 -5.325,-8.522 -8.95,-11.978c-1.865,-1.778 -3.883,-3.394 -6.025,-4.825l-24.726,37.089l-30.72,15.36l0,-30.72l49.837,-24.918Zm-17.063,42.605l-24.012,36.018l49.678,-24.839l0,-24.012l-25.666,12.833Zm-29.774,-15.833l0,24.012l25.666,-12.833l24.012,-36.018l-49.678,24.839Z" style="fill-opacity:0.05;"/></svg>